<svg width="263" height="263" viewBox="0 0 263 263" fill="none" xmlns="http://www.w3.org/2000/svg">
<rect width="263" height="263" rx="25" fill="white"/>
<path d="M35 125.5V211.5H82.25H102.5M12 125.5L57.5 58L123.5 15L189 58L224 102M140.5 139H82.25V195" stroke="#B5121B" stroke-width="10" stroke-linecap="round" stroke-linejoin="round"/>
<rect x="108" y="62" width="30" height="40" rx="6" stroke="#B5121B" stroke-width="10"/>
<path d="M141.436 190.379C137.543 194.271 135.411 199.428 135.411 204.907C135.411 210.411 137.568 215.568 141.436 219.436C145.328 223.328 150.485 225.461 155.964 225.461C161.468 225.461 166.625 223.304 170.493 219.436L179.741 210.188L150.684 181.156L141.436 190.379ZM206.914 133.429C201.41 133.429 196.253 135.586 192.385 139.454L183.137 148.702L212.195 177.759L221.442 168.511C225.31 164.619 227.467 159.462 227.467 153.983C227.467 148.479 225.31 143.322 221.442 139.454C217.55 135.562 212.393 133.429 206.914 133.429Z" fill="#B5121B" fill-opacity="0.1"/>
<path d="M191.839 184.85C191.344 184.379 190.575 184.379 190.079 184.85L179.716 195.213L165.658 181.156L176.046 170.767C176.517 170.296 176.517 169.503 176.046 169.007L170.394 163.354C169.898 162.883 169.129 162.883 168.633 163.354L158.27 173.743L151.576 167.049C151.353 166.825 151.03 166.677 150.683 166.701C150.361 166.701 150.039 166.825 149.791 167.049L133.973 182.916C128.171 188.717 124.899 196.552 124.849 204.758C124.824 210.907 126.585 217.056 130.179 222.361L118.353 234.188C117.882 234.683 117.882 235.452 118.353 235.948L124.948 242.543C125.196 242.791 125.518 242.89 125.841 242.89C126.163 242.89 126.485 242.766 126.733 242.543L138.559 230.692C143.791 234.262 149.89 236.022 155.989 236.022C163.947 236.022 171.931 232.998 178.005 226.899L193.848 211.056C194.319 210.585 194.319 209.791 193.848 209.296L187.154 202.601L197.542 192.213C198.013 191.742 198.013 190.949 197.542 190.453L191.839 184.85ZM170.517 219.461C166.675 223.328 161.443 225.485 155.989 225.485C150.485 225.485 145.353 223.353 141.46 219.461C137.593 215.593 135.436 210.411 135.436 204.932C135.436 199.428 137.568 194.296 141.46 190.403L150.708 181.156L179.765 210.213L170.517 219.461ZM244.549 122.942L237.954 116.347C237.706 116.099 237.384 116 237.062 116C236.739 116 236.417 116.124 236.169 116.347L224.343 128.198C219.186 124.702 213.112 122.843 206.913 122.868C198.955 122.868 190.972 125.892 184.897 131.991L169.055 147.834C168.584 148.33 168.584 149.098 169.055 149.594L211.302 191.841C211.55 192.089 211.872 192.188 212.194 192.188C212.517 192.188 212.839 192.065 213.087 191.841L228.929 175.999C239.64 165.263 240.904 148.677 232.698 136.553L244.549 124.702C245.045 124.231 245.045 123.438 244.549 122.942ZM221.442 168.511L212.194 177.759L183.137 148.702L192.385 139.454C196.252 135.586 201.434 133.429 206.913 133.429C212.417 133.429 217.55 135.562 221.442 139.454C225.31 143.322 227.467 148.503 227.467 153.983C227.467 159.487 225.31 164.619 221.442 168.511Z" fill="#B5121B"/>
</svg>
